<svg viewBox="0 0 100 100" xmlns="http://www.w3.org/2000/svg"><path d="M78,69Q62,88,37,83Q12,78,12.5,50.5Q13,23,37.5,18Q62,13,78,31.5Q94,50,78,69Z" stroke="none" stroke-width="0" fill="#e3e4e6"/><path d="M79,66.5Q61,83,40.5,77.5Q20,72,16.5,47.5Q13,23,38,16Q63,9,80,29.5Q97,50,79,66.5Z" stroke="none" stroke-width="0" fill="#e0e2e6"/><path d="M76.5,71.5Q64,93,38,85.5Q12,78,11.5,50Q11,22,37,16Q63,10,76,30Q89,50,76.5,71.5Z" stroke="none" stroke-width="0" fill="#dde0e6"/><path d="M79,69Q62,88,36.5,83Q11,78,11.5,50Q12,22,37,17.5Q62,13,79,31.5Q96,50,79,69Z" stroke="none" stroke-width="0" fill="#dadee6"/><path d="M79.5,67Q61,84,40,78Q19,72,16,47.5Q13,23,39,13.5Q65,4,81.5,27Q98,50,79.5,67Z" stroke="none" stroke-width="0" fill="#d7dce6"/><path d="M77,66.5Q61,83,38.5,79Q16,75,16.5,50.5Q17,26,39,20.5Q61,15,77,32.5Q93,50,77,66.5Z" stroke="none" stroke-width="0" fill="#d4dae6"/><path d="M78.5,68Q62,86,36,82.5Q10,79,15.5,54Q21,29,43,15.5Q65,2,80,26Q95,50,78.5,68Z" stroke="none" stroke-width="0" fill="#d1d8e6"/><path d="M78.5,71.5Q64,93,42.5,82Q21,71,21.5,50Q22,29,41.5,22Q61,15,77,32.5Q93,50,78.5,71.5Z" stroke="none" stroke-width="0" fill="#ced6e6"/><path d="M77,71.5Q64,93,37,86Q10,79,12,51.5Q14,24,38,18.5Q62,13,76,31.5Q90,50,77,71.5Z" stroke="none" stroke-width="0" fill="#cbd4e6"/><path d="M78.5,68Q62,86,36,82.5Q10,79,12.5,52Q15,25,39.5,16.5Q64,8,79.5,29Q95,50,78.5,68Z" stroke="none" stroke-width="0" fill="#c8d2e6"/><path d="M79,73.5Q65,97,41,85.5Q17,74,19.5,51.5Q22,29,41.5,22Q61,15,77,32.5Q93,50,79,73.5Z" stroke="none" stroke-width="0" fill="#c5d0e6"/><path d="M76,71Q64,92,39,84Q14,76,16,51Q18,26,40,20Q62,14,75,32Q88,50,76,71Z" stroke="none" stroke-width="0" fill="#c2cee6"/><path d="M81.5,71.5Q64,93,40,84Q16,75,17,51Q18,27,40.5,18Q63,9,81,29.5Q99,50,81.5,71.5Z" stroke="none" stroke-width="0" fill="#bfcce6"/><path d="M76,72Q64,94,40.5,84Q17,74,13.5,47.5Q10,21,37.5,12Q65,3,76.5,26.5Q88,50,76,72Z" stroke="none" stroke-width="0" fill="#bccae6"/><path d="M82,72.5Q64,95,40.5,84.5Q17,74,19,51.5Q21,29,42,20Q63,11,81.5,30.5Q100,50,82,72.5Z" stroke="none" stroke-width="0" fill="#b9c8e6"/><path d="M77,73Q65,96,41,85Q17,74,17.5,50.5Q18,27,41.5,15.5Q65,4,77,27Q89,50,77,73Z" stroke="none" stroke-width="0" fill="#b6c6e6"/><path d="M78,69.5Q63,89,40.5,81.5Q18,74,18,50.5Q18,27,39.5,21Q61,15,77,32.5Q93,50,78,69.5Z" stroke="none" stroke-width="0" fill="#b3c4e6"/><path d="M78.5,69.5Q63,89,42,80Q21,71,17.5,47.5Q14,24,39.5,14Q65,4,79.5,27Q94,50,78.5,69.5Z" stroke="none" stroke-width="0" fill="#b0c2e6"/><path d="M80.5,71.5Q64,93,42,82.5Q20,72,16,47Q12,22,37,17.5Q62,13,79.5,31.5Q97,50,80.5,71.5Z" stroke="none" stroke-width="0" fill="#adc0e6"/><path d="M77.5,73Q65,96,38.5,87Q12,78,14.5,52Q17,26,41,15.5Q65,5,77.5,27.5Q90,50,77.5,73Z" stroke="none" stroke-width="0" fill="#aabee6"/><path d="M75.5,72Q64,94,39.5,84.5Q15,75,17,51Q19,27,40.5,20.5Q62,14,74.5,32Q87,50,75.5,72Z" stroke="none" stroke-width="0" fill="#a7bce6"/><path d="M80,72.5Q65,95,40.5,85Q16,75,14.5,49Q13,23,38.5,14.5Q64,6,79.5,28Q95,50,80,72.5Z" stroke="none" stroke-width="0" fill="#a4bae6"/><path d="M75,66.5Q61,83,35.5,81Q10,79,11.5,51Q13,23,38.5,15.5Q64,8,76.5,29Q89,50,75,66.5Z" stroke="none" stroke-width="0" fill="#a1b8e6"/><path d="M75.5,73Q65,96,42,84Q19,72,15.5,47Q12,22,37,18.5Q62,15,74,32.5Q86,50,75.5,73Z" stroke="none" stroke-width="0" fill="#9eb6e6"/><path d="M78,73Q65,96,41.5,84.5Q18,73,18.5,50.5Q19,28,42,16Q65,4,78,27Q91,50,78,73Z" stroke="none" stroke-width="0" fill="#9bb4e6"/><path d="M79,72.5Q65,95,40.5,85Q16,75,18.5,52Q21,29,43,16Q65,3,79,26.5Q93,50,79,72.5Z" stroke="none" stroke-width="0" fill="#98b2e6"/><path d="M75.5,70Q63,90,41,81Q19,72,17.5,48.5Q16,25,40,16Q64,7,76,28.5Q88,50,75.5,70Z" stroke="none" stroke-width="0" fill="#95b0e6"/><path d="M77.5,72Q64,94,40.5,84Q17,74,16,49.5Q15,25,39.5,16Q64,7,77.5,28.5Q91,50,77.5,72Z" stroke="none" stroke-width="0" fill="#92aee6"/><path d="M79.5,68.5Q62,87,41,79.5Q20,72,17,48Q14,24,38.5,17Q63,10,80,30Q97,50,79.5,68.5Z" stroke="none" stroke-width="0" fill="#8face6"/><path d="M77,67Q61,84,40.5,77.5Q20,71,18.5,48.5Q17,26,39.5,20.5Q62,15,77.5,32.5Q93,50,77,67Z" stroke="none" stroke-width="0" fill="#8caae6"/><path d="M76.5,66.5Q61,83,36,81Q11,79,11,50Q11,21,36.5,16.5Q62,12,77,31Q92,50,76.5,66.5Z" stroke="none" stroke-width="0" fill="#89a8e6"/><path d="M77,72Q64,94,39,85Q14,76,14,49.5Q14,23,38,18Q62,13,76,31.5Q90,50,77,72Z" stroke="none" stroke-width="0" fill="#86a6e6"/><path d="M78.5,67Q61,84,40.5,78Q20,72,20,50Q20,28,42.5,16.5Q65,5,80.5,27.5Q96,50,78.5,67Z" stroke="none" stroke-width="0" fill="#83a4e6"/><path d="M75.5,66.5Q61,83,41,77Q21,71,19.5,49Q18,27,41.5,15.5Q65,4,77.5,27Q90,50,75.5,66.5Z" stroke="none" stroke-width="0" fill="#80a2e6"/><path d="M81,72Q64,94,37,86.5Q10,79,13.5,52.5Q17,26,39.5,19.5Q62,13,80,31.5Q98,50,81,72Z" stroke="none" stroke-width="0" fill="#7da0e6"/><path d="M76,67.5Q61,85,40.5,78.5Q20,72,17.5,48Q15,24,39.5,16Q64,8,77.5,29Q91,50,76,67.5Z" stroke="none" stroke-width="0" fill="#7a9ee6"/><path d="M80.5,70.5Q63,91,40.5,82Q18,73,16.5,49Q15,25,39.5,16Q64,7,81,28.5Q98,50,80.5,70.5Z" stroke="none" stroke-width="0" fill="#779ce6"/><path d="M77,70.5Q63,91,40,82.5Q17,74,16,49.5Q15,25,38.5,19Q62,13,76.5,31.5Q91,50,77,70.5Z" stroke="none" stroke-width="0" fill="#749ae6"/><path d="M80.5,72.5Q64,95,42.5,83Q21,71,15.5,46Q10,21,36,16.5Q62,12,79.5,31Q97,50,80.5,72.5Z" stroke="none" stroke-width="0" fill="#7198e6"/><path d="M79,68.5Q62,87,41,79.5Q20,72,17,48Q14,24,38,18.5Q62,13,79,31.5Q96,50,79,68.5Z" stroke="none" stroke-width="0" fill="#6e96e6"/><path d="M78,68.5Q62,87,36.5,83Q11,79,15.5,53.5Q20,28,42.5,16.5Q65,5,79.5,27.5Q94,50,78,68.5Z" stroke="none" stroke-width="0" fill="#6b94e6"/><path d="M73.5,67.5Q61,85,38.5,79.5Q16,74,13,47.5Q10,21,36,16.5Q62,12,74,31Q86,50,73.5,67.5Z" stroke="none" stroke-width="0" fill="#6892e6"/><path d="M81,69Q62,88,41,80Q20,72,15.5,47Q11,22,36,19Q61,16,80.5,33Q100,50,81,69Z" stroke="none" stroke-width="0" fill="#6590e6"/><path d="M81.5,73Q65,96,38.5,86.5Q12,77,11.5,49.5Q11,22,37,16Q63,10,80.5,30Q98,50,81.5,73Z" stroke="none" stroke-width="0" fill="#628ee6"/><path d="M74,68.5Q62,87,36.5,82.5Q11,78,14,52Q17,26,40,18Q63,10,74.5,30Q86,50,74,68.5Z" stroke="none" stroke-width="0" fill="#5f8ce6"/><path d="M76.5,69.5Q63,89,38.5,82.5Q14,76,13.5,49.5Q13,23,38.5,15Q64,7,77,28.5Q90,50,76.5,69.5Z" stroke="none" stroke-width="0" fill="#5c8ae6"/><path d="M76,68.5Q62,87,38.5,81.5Q15,76,12.5,48.5Q10,21,37,14Q64,7,77,28.5Q90,50,76,68.5Z" stroke="none" stroke-width="0" fill="#5988e6"/><path d="M78,72.5Q65,95,37.5,87Q10,79,13,52.5Q16,26,40.5,15.5Q65,5,78,27.5Q91,50,78,72.5Z" stroke="none" stroke-width="0" fill="#5686e6"/><path d="M74.5,71Q64,92,37.5,85Q11,78,15.5,53Q20,28,40.5,21.5Q61,15,73,32.5Q85,50,74.5,71Z" stroke="none" stroke-width="0" fill="#5384e6"/><path d="M78,68Q62,86,37.5,81.5Q13,77,16.5,52.5Q20,28,42.5,16.5Q65,5,79.5,27.5Q94,50,78,68Z" stroke="none" stroke-width="0" fill="#5082e6"/><path d="M77.5,72.5Q65,95,41,84.5Q17,74,16.5,50Q16,26,39,19.5Q62,13,76,31.5Q90,50,77.5,72.5Z" stroke="none" stroke-width="0" fill="#4d80e6"/><path d="M77,69Q62,88,40.5,80Q19,72,19,49.5Q19,27,42,15Q65,3,78.5,26.5Q92,50,77,69Z" stroke="none" stroke-width="0" fill="#4a7ee6"/></svg>